<svg version="1.1" xmlns="http://www.w3.org/2000/svg" xmlns:xlink="http://www.w3.org/1999/xlink" width="1183" height="1027"><defs><clipPath id="koEhNwHPbSOE"><path fill="none" stroke="none" d=" M 0 0 L 1183 0 L 1183 1027 L 0 1027 L 0 0 Z"/></clipPath></defs><g transform="scale(1,1)" clip-path="url(#koEhNwHPbSOE)"><g transform="translate(-12,-62)"><rect fill="rgb(255,255,255)" stroke="none" x="0" y="0" width="2118" height="1252" fill-opacity="1"/><path fill="none" stroke="rgb(180,179,186)" paint-order="fill stroke markers" d=" M 63.5 0.5 L 63.5 1252.5 M 63.5 0.5 L 63.5 1252.5 M 154.5 0.5 L 154.5 1252.5 M 245.5 0.5 L 245.5 1252.5 M 336.5 0.5 L 336.5 1252.5 M 518.5 0.5 L 518.5 1252.5 M 608.5 0.5 L 608.5 1252.5 M 699.5 0.5 L 699.5 1252.5 M 790.5 0.5 L 790.5 1252.5 M 881.5 0.5 L 881.5 1252.5 M 972.5 0.5 L 972.5 1252.5 M 1063.5 0.5 L 1063.5 1252.5 M 1154.5 0.5 L 1154.5 1252.5 M 1245.5 0.5 L 1245.5 1252.5 M 1336.5 0.5 L 1336.5 1252.5 M 1427.5 0.5 L 1427.5 1252.5 M 1518.5 0.5 L 1518.5 1252.5 M 1609.5 0.5 L 1609.5 1252.5 M 1700.5 0.5 L 1700.5 1252.5 M 1791.5 0.5 L 1791.5 1252.5 M 1882.5 0.5 L 1882.5 1252.5 M 1973.5 0.5 L 1973.5 1252.5 M 2064.5 0.5 L 2064.5 1252.5" stroke-opacity="1" stroke-linecap="round" stroke-linejoin="round" stroke-miterlimit="10"/><path fill="none" stroke="rgb(180,179,186)" paint-order="fill stroke markers" d=" M 8.5 0.5 L 8.5 1252.5 M 26.5 0.5 L 26.5 1252.5 M 45.5 0.5 L 45.5 1252.5 M 81.5 0.5 L 81.5 1252.5 M 99.5 0.5 L 99.5 1252.5 M 117.5 0.5 L 117.5 1252.5 M 136.5 0.5 L 136.5 1252.5 M 172.5 0.5 L 172.5 1252.5 M 190.5 0.5 L 190.5 1252.5 M 208.5 0.5 L 208.5 1252.5 M 226.5 0.5 L 226.5 1252.5 M 263.5 0.5 L 263.5 1252.5 M 281.5 0.5 L 281.5 1252.5 M 299.5 0.5 L 299.5 1252.5 M 317.5 0.5 L 317.5 1252.5 M 354.5 0.5 L 354.5 1252.5 M 372.5 0.5 L 372.5 1252.5 M 390.5 0.5 L 390.5 1252.5 M 408.5 0.5 L 408.5 1252.5 M 445.5 0.5 L 445.5 1252.5 M 463.5 0.5 L 463.5 1252.5 M 481.5 0.5 L 481.5 1252.5 M 499.5 0.5 L 499.5 1252.5 M 536.5 0.5 L 536.5 1252.5 M 554.5 0.5 L 554.5 1252.5 M 572.5 0.5 L 572.5 1252.5 M 590.5 0.5 L 590.5 1252.5 M 627.5 0.5 L 627.5 1252.5 M 645.5 0.5 L 645.5 1252.5 M 663.5 0.5 L 663.5 1252.5 M 681.5 0.5 L 681.5 1252.5 M 718.5 0.5 L 718.5 1252.5 M 736.5 0.5 L 736.5 1252.5 M 754.5 0.5 L 754.5 1252.5 M 772.5 0.5 L 772.5 1252.5 M 809.5 0.5 L 809.5 1252.5 M 827.5 0.5 L 827.5 1252.5 M 845.5 0.5 L 845.5 1252.5 M 863.5 0.5 L 863.5 1252.5 M 900.5 0.5 L 900.5 1252.5 M 918.5 0.5 L 918.5 1252.5 M 936.5 0.5 L 936.5 1252.5 M 954.5 0.5 L 954.5 1252.5 M 991.5 0.5 L 991.5 1252.5 M 1009.5 0.5 L 1009.5 1252.5 M 1027.5 0.5 L 1027.5 1252.5 M 1045.5 0.5 L 1045.5 1252.5 M 1081.5 0.5 L 1081.5 1252.5 M 1100.5 0.5 L 1100.5 1252.5 M 1118.5 0.5 L 1118.5 1252.5 M 1136.5 0.5 L 1136.5 1252.5 M 1172.5 0.5 L 1172.5 1252.5 M 1191.5 0.5 L 1191.5 1252.5 M 1209.5 0.5 L 1209.5 1252.5 M 1227.5 0.5 L 1227.5 1252.5 M 1263.5 0.5 L 1263.5 1252.5 M 1282.5 0.5 L 1282.5 1252.5 M 1300.5 0.5 L 1300.5 1252.5 M 1318.5 0.5 L 1318.5 1252.5 M 1354.5 0.5 L 1354.5 1252.5 M 1373.5 0.5 L 1373.5 1252.5 M 1391.5 0.5 L 1391.5 1252.5 M 1409.5 0.5 L 1409.5 1252.5 M 1445.5 0.5 L 1445.5 1252.5 M 1463.5 0.5 L 1463.5 1252.5 M 1482.5 0.5 L 1482.5 1252.5 M 1500.5 0.5 L 1500.5 1252.5 M 1536.5 0.5 L 1536.5 1252.5 M 1554.5 0.5 L 1554.5 1252.5 M 1573.5 0.5 L 1573.5 1252.5 M 1591.5 0.5 L 1591.5 1252.5 M 1627.5 0.5 L 1627.5 1252.5 M 1645.5 0.5 L 1645.5 1252.5 M 1664.5 0.5 L 1664.5 1252.5 M 1682.5 0.5 L 1682.5 1252.5 M 1718.5 0.5 L 1718.5 1252.5 M 1736.5 0.5 L 1736.5 1252.5 M 1755.5 0.5 L 1755.5 1252.5 M 1773.5 0.5 L 1773.5 1252.5 M 1809.5 0.5 L 1809.5 1252.5 M 1827.5 0.5 L 1827.5 1252.5 M 1845.5 0.5 L 1845.5 1252.5 M 1864.5 0.5 L 1864.5 1252.5 M 1900.5 0.5 L 1900.5 1252.5 M 1918.5 0.5 L 1918.5 1252.5 M 1936.5 0.5 L 1936.5 1252.5 M 1955.5 0.5 L 1955.5 1252.5 M 1991.5 0.5 L 1991.5 1252.5 M 2009.5 0.5 L 2009.5 1252.5 M 2027.5 0.5 L 2027.5 1252.5 M 2046.5 0.5 L 2046.5 1252.5 M 2082.5 0.5 L 2082.5 1252.5 M 2100.5 0.5 L 2100.5 1252.5" stroke-opacity="0.23529411764705882" stroke-linecap="round" stroke-linejoin="round" stroke-miterlimit="10"/><path fill="none" stroke="rgb(180,179,186)" paint-order="fill stroke markers" d=" M 0.5 35.5 L 2118.5 35.5 M 0.5 35.5 L 2118.5 35.5 M 0.5 125.5 L 2118.5 125.5 M 0.5 216.5 L 2118.5 216.5 M 0.5 307.5 L 2118.5 307.5 M 0.5 398.5 L 2118.5 398.5 M 0.5 489.5 L 2118.5 489.5 M 0.5 580.5 L 2118.5 580.5 M 0.5 671.5 L 2118.5 671.5 M 0.5 762.5 L 2118.5 762.5 M 0.5 853.5 L 2118.5 853.5 M 0.5 944.5 L 2118.5 944.5 M 0.5 1035.5 L 2118.5 1035.5 M 0.5 1126.5 L 2118.5 1126.5 M 0.5 1217.5 L 2118.5 1217.5" stroke-opacity="1" stroke-linecap="round" stroke-linejoin="round" stroke-miterlimit="10"/><path fill="none" stroke="rgb(180,179,186)" paint-order="fill stroke markers" d=" M 0.5 16.5 L 2118.5 16.5 M 0.5 16.5 L 2118.5 16.5 M 0.5 53.5 L 2118.5 53.5 M 0.5 71.5 L 2118.5 71.5 M 0.5 89.5 L 2118.5 89.5 M 0.5 107.5 L 2118.5 107.5 M 0.5 144.5 L 2118.5 144.5 M 0.5 162.5 L 2118.5 162.5 M 0.5 180.5 L 2118.5 180.5 M 0.5 198.5 L 2118.5 198.5 M 0.5 235.5 L 2118.5 235.5 M 0.5 253.5 L 2118.5 253.5 M 0.5 271.5 L 2118.5 271.5 M 0.5 289.5 L 2118.5 289.5 M 0.5 326.5 L 2118.5 326.5 M 0.5 344.5 L 2118.5 344.5 M 0.5 362.5 L 2118.5 362.5 M 0.5 380.5 L 2118.5 380.5 M 0.5 417.5 L 2118.5 417.5 M 0.5 435.5 L 2118.5 435.5 M 0.5 453.5 L 2118.5 453.5 M 0.5 471.5 L 2118.5 471.5 M 0.5 507.5 L 2118.5 507.5 M 0.5 526.5 L 2118.5 526.5 M 0.5 544.5 L 2118.5 544.5 M 0.5 562.5 L 2118.5 562.5 M 0.5 598.5 L 2118.5 598.5 M 0.5 617.5 L 2118.5 617.5 M 0.5 635.5 L 2118.5 635.5 M 0.5 653.5 L 2118.5 653.5 M 0.5 689.5 L 2118.5 689.5 M 0.5 708.5 L 2118.5 708.5 M 0.5 726.5 L 2118.5 726.5 M 0.5 744.5 L 2118.5 744.5 M 0.5 780.5 L 2118.5 780.5 M 0.5 799.5 L 2118.5 799.5 M 0.5 817.5 L 2118.5 817.5 M 0.5 835.5 L 2118.5 835.5 M 0.5 871.5 L 2118.5 871.5 M 0.5 889.5 L 2118.5 889.5 M 0.5 908.5 L 2118.5 908.5 M 0.5 926.5 L 2118.5 926.5 M 0.5 962.5 L 2118.5 962.5 M 0.5 980.5 L 2118.5 980.5 M 0.5 999.5 L 2118.5 999.5 M 0.5 1017.5 L 2118.5 1017.5 M 0.5 1053.5 L 2118.5 1053.5 M 0.5 1071.5 L 2118.5 1071.5 M 0.5 1090.5 L 2118.5 1090.5 M 0.5 1108.5 L 2118.5 1108.5 M 0.5 1144.5 L 2118.5 1144.5 M 0.5 1162.5 L 2118.5 1162.5 M 0.5 1181.5 L 2118.5 1181.5 M 0.5 1199.5 L 2118.5 1199.5 M 0.5 1235.5 L 2118.5 1235.5" stroke-opacity="0.23529411764705882" stroke-linecap="round" stroke-linejoin="round" stroke-miterlimit="10"/><path fill="none" stroke="rgb(28,28,31)" paint-order="fill stroke markers" d=" M 427.5 2.5 L 427.5 1252.5" stroke-opacity="1" stroke-miterlimit="10"/><path fill="none" stroke="rgb(28,28,31)" paint-order="fill stroke markers" d=" M 427.5 1.5 L 419.5 9.5" stroke-opacity="1" stroke-miterlimit="10"/><path fill="none" stroke="rgb(28,28,31)" paint-order="fill stroke markers" d=" M 427.5 1.5 L 435.5 9.5" stroke-opacity="1" stroke-miterlimit="10"/><path fill="none" stroke="rgb(28,28,31)" paint-order="fill stroke markers" d=" M 0.5 3400.5 L 2116.5 3400.5" stroke-opacity="1" stroke-miterlimit="10"/><path fill="none" stroke="rgb(28,28,31)" paint-order="fill stroke markers" d=" M 2117.5 3400.5 L 2109.5 3392.5" stroke-opacity="1" stroke-miterlimit="10"/><path fill="none" stroke="rgb(28,28,31)" paint-order="fill stroke markers" d=" M 2117.5 3400.5 L 2109.5 3408.5" stroke-opacity="1" stroke-miterlimit="10"/><text fill="rgb(28,28,31)" stroke="none" font-family="geogebra-sans-serif, sans-serif" font-size="24px" font-style="normal" font-weight="normal" text-decoration="normal" x="40" y="1241" text-anchor="start" dominant-baseline="alphabetic" fill-opacity="1">–0.4</text><text fill="rgb(28,28,31)" stroke="none" font-family="geogebra-sans-serif, sans-serif" font-size="24px" font-style="normal" font-weight="normal" text-decoration="normal" x="131" y="1241" text-anchor="start" dominant-baseline="alphabetic" fill-opacity="1">–0.3</text><text fill="rgb(28,28,31)" stroke="none" font-family="geogebra-sans-serif, sans-serif" font-size="24px" font-style="normal" font-weight="normal" text-decoration="normal" x="222" y="1241" text-anchor="start" dominant-baseline="alphabetic" fill-opacity="1">–0.2</text><text fill="rgb(28,28,31)" stroke="none" font-family="geogebra-sans-serif, sans-serif" font-size="24px" font-style="normal" font-weight="normal" text-decoration="normal" x="313" y="1241" text-anchor="start" dominant-baseline="alphabetic" fill-opacity="1">–0.1</text><text fill="rgb(28,28,31)" stroke="none" font-family="geogebra-sans-serif, sans-serif" font-size="24px" font-style="normal" font-weight="normal" text-decoration="normal" x="501" y="1241" text-anchor="start" dominant-baseline="alphabetic" fill-opacity="1">0.1</text><text fill="rgb(28,28,31)" stroke="none" font-family="geogebra-sans-serif, sans-serif" font-size="24px" font-style="normal" font-weight="normal" text-decoration="normal" x="591" y="1241" text-anchor="start" dominant-baseline="alphabetic" fill-opacity="1">0.2</text><text fill="rgb(28,28,31)" stroke="none" font-family="geogebra-sans-serif, sans-serif" font-size="24px" font-style="normal" font-weight="normal" text-decoration="normal" x="682" y="1241" text-anchor="start" dominant-baseline="alphabetic" fill-opacity="1">0.3</text><text fill="rgb(28,28,31)" stroke="none" font-family="geogebra-sans-serif, sans-serif" font-size="24px" font-style="normal" font-weight="normal" text-decoration="normal" x="773" y="1241" text-anchor="start" dominant-baseline="alphabetic" fill-opacity="1">0.4</text><text fill="rgb(28,28,31)" stroke="none" font-family="geogebra-sans-serif, sans-serif" font-size="24px" font-style="normal" font-weight="normal" text-decoration="normal" x="864" y="1241" text-anchor="start" dominant-baseline="alphabetic" fill-opacity="1">0.5</text><text fill="rgb(28,28,31)" stroke="none" font-family="geogebra-sans-serif, sans-serif" font-size="24px" font-style="normal" font-weight="normal" text-decoration="normal" x="955" y="1241" text-anchor="start" dominant-baseline="alphabetic" fill-opacity="1">0.6</text><text fill="rgb(28,28,31)" stroke="none" font-family="geogebra-sans-serif, sans-serif" font-size="24px" font-style="normal" font-weight="normal" text-decoration="normal" x="1046" y="1241" text-anchor="start" dominant-baseline="alphabetic" fill-opacity="1">0.7</text><text fill="rgb(28,28,31)" stroke="none" font-family="geogebra-sans-serif, sans-serif" font-size="24px" font-style="normal" font-weight="normal" text-decoration="normal" x="1137" y="1241" text-anchor="start" dominant-baseline="alphabetic" fill-opacity="1">0.8</text><text fill="rgb(28,28,31)" stroke="none" font-family="geogebra-sans-serif, sans-serif" font-size="24px" font-style="normal" font-weight="normal" text-decoration="normal" x="1228" y="1241" text-anchor="start" dominant-baseline="alphabetic" fill-opacity="1">0.9</text><text fill="rgb(28,28,31)" stroke="none" font-family="geogebra-sans-serif, sans-serif" font-size="24px" font-style="normal" font-weight="normal" text-decoration="normal" x="1331" y="1241" text-anchor="start" dominant-baseline="alphabetic" fill-opacity="1">1</text><text fill="rgb(28,28,31)" stroke="none" font-family="geogebra-sans-serif, sans-serif" font-size="24px" font-style="normal" font-weight="normal" text-decoration="normal" x="1410" y="1241" text-anchor="start" dominant-baseline="alphabetic" fill-opacity="1">1.1</text><text fill="rgb(28,28,31)" stroke="none" font-family="geogebra-sans-serif, sans-serif" font-size="24px" font-style="normal" font-weight="normal" text-decoration="normal" x="1501" y="1241" text-anchor="start" dominant-baseline="alphabetic" fill-opacity="1">1.2</text><text fill="rgb(28,28,31)" stroke="none" font-family="geogebra-sans-serif, sans-serif" font-size="24px" font-style="normal" font-weight="normal" text-decoration="normal" x="1592" y="1241" text-anchor="start" dominant-baseline="alphabetic" fill-opacity="1">1.3</text><text fill="rgb(28,28,31)" stroke="none" font-family="geogebra-sans-serif, sans-serif" font-size="24px" font-style="normal" font-weight="normal" text-decoration="normal" x="1683" y="1241" text-anchor="start" dominant-baseline="alphabetic" fill-opacity="1">1.4</text><text fill="rgb(28,28,31)" stroke="none" font-family="geogebra-sans-serif, sans-serif" font-size="24px" font-style="normal" font-weight="normal" text-decoration="normal" x="1774" y="1241" text-anchor="start" dominant-baseline="alphabetic" fill-opacity="1">1.5</text><text fill="rgb(28,28,31)" stroke="none" font-family="geogebra-sans-serif, sans-serif" font-size="24px" font-style="normal" font-weight="normal" text-decoration="normal" x="1865" y="1241" text-anchor="start" dominant-baseline="alphabetic" fill-opacity="1">1.6</text><text fill="rgb(28,28,31)" stroke="none" font-family="geogebra-sans-serif, sans-serif" font-size="24px" font-style="normal" font-weight="normal" text-decoration="normal" x="1956" y="1241" text-anchor="start" dominant-baseline="alphabetic" fill-opacity="1">1.7</text><text fill="rgb(28,28,31)" stroke="none" font-family="geogebra-sans-serif, sans-serif" font-size="24px" font-style="normal" font-weight="normal" text-decoration="normal" x="2047" y="1241" text-anchor="start" dominant-baseline="alphabetic" fill-opacity="1">1.8</text><text fill="rgb(28,28,31)" stroke="none" font-family="geogebra-sans-serif, sans-serif" font-size="24px" font-style="normal" font-weight="normal" text-decoration="normal" x="384" y="1137" text-anchor="start" dominant-baseline="alphabetic" fill-opacity="1">2.5</text><text fill="rgb(28,28,31)" stroke="none" font-family="geogebra-sans-serif, sans-serif" font-size="24px" font-style="normal" font-weight="normal" text-decoration="normal" x="384" y="1046" text-anchor="start" dominant-baseline="alphabetic" fill-opacity="1">2.6</text><text fill="rgb(28,28,31)" stroke="none" font-family="geogebra-sans-serif, sans-serif" font-size="24px" font-style="normal" font-weight="normal" text-decoration="normal" x="384" y="955" text-anchor="start" dominant-baseline="alphabetic" fill-opacity="1">2.7</text><text fill="rgb(28,28,31)" stroke="none" font-family="geogebra-sans-serif, sans-serif" font-size="24px" font-style="normal" font-weight="normal" text-decoration="normal" x="384" y="864" text-anchor="start" dominant-baseline="alphabetic" fill-opacity="1">2.8</text><text fill="rgb(28,28,31)" stroke="none" font-family="geogebra-sans-serif, sans-serif" font-size="24px" font-style="normal" font-weight="normal" text-decoration="normal" x="384" y="773" text-anchor="start" dominant-baseline="alphabetic" fill-opacity="1">2.9</text><text fill="rgb(28,28,31)" stroke="none" font-family="geogebra-sans-serif, sans-serif" font-size="24px" font-style="normal" font-weight="normal" text-decoration="normal" x="404" y="682" text-anchor="start" dominant-baseline="alphabetic" fill-opacity="1">3</text><text fill="rgb(28,28,31)" stroke="none" font-family="geogebra-sans-serif, sans-serif" font-size="24px" font-style="normal" font-weight="normal" text-decoration="normal" x="384" y="591" text-anchor="start" dominant-baseline="alphabetic" fill-opacity="1">3.1</text><text fill="rgb(28,28,31)" stroke="none" font-family="geogebra-sans-serif, sans-serif" font-size="24px" font-style="normal" font-weight="normal" text-decoration="normal" x="384" y="500" text-anchor="start" dominant-baseline="alphabetic" fill-opacity="1">3.2</text><text fill="rgb(28,28,31)" stroke="none" font-family="geogebra-sans-serif, sans-serif" font-size="24px" font-style="normal" font-weight="normal" text-decoration="normal" x="384" y="409" text-anchor="start" dominant-baseline="alphabetic" fill-opacity="1">3.3</text><text fill="rgb(28,28,31)" stroke="none" font-family="geogebra-sans-serif, sans-serif" font-size="24px" font-style="normal" font-weight="normal" text-decoration="normal" x="384" y="318" text-anchor="start" dominant-baseline="alphabetic" fill-opacity="1">3.4</text><text fill="rgb(28,28,31)" stroke="none" font-family="geogebra-sans-serif, sans-serif" font-size="24px" font-style="normal" font-weight="normal" text-decoration="normal" x="384" y="227" text-anchor="start" dominant-baseline="alphabetic" fill-opacity="1">3.5</text><text fill="rgb(28,28,31)" stroke="none" font-family="geogebra-sans-serif, sans-serif" font-size="24px" font-style="normal" font-weight="normal" text-decoration="normal" x="384" y="136" text-anchor="start" dominant-baseline="alphabetic" fill-opacity="1">3.6</text><text fill="rgb(28,28,31)" stroke="none" font-family="geogebra-sans-serif, sans-serif" font-size="24px" font-style="normal" font-weight="normal" text-decoration="normal" x="384" y="46" text-anchor="start" dominant-baseline="alphabetic" fill-opacity="1">3.7</text><path fill="none" stroke="rgb(0,103,88)" paint-order="fill stroke markers" d=" M 460.2099609375 -9.17472951106447 L 460.46850585937506 -3.4783259026421547 L 460.72705078125 2.167028843863136 L 460.985595703125 7.762127592383877 L 461.24414062500006 13.30774496314416 L 461.502685546875 18.804637885732063 L 461.76123046875006 24.253546131420535 L 462.019775390625 29.655192825626727 L 462.2783203125 35.01028494143611 L 462.536865234375 40.3195137749849 L 462.79541015625 45.58355540352477 L 463.05395507812506 50.80307112689434 L 463.31250000000006 55.9787078931372 M 463.31250000000006 55.9787078931372 L 463.571044921875 61.1110987089246 L 463.82958984375 66.2008630354394 L 464.08813476562506 71.24860717033516 L 464.34667968750006 76.25492461634485 L 464.86376953125006 86.14559160068848 L 465.380859375 95.87736933055203 L 465.89794921875006 105.45457996990626 L 466.41503906250006 114.88137225554783 L 466.93212890625 124.16173060887377 L 467.44921875000006 133.29948365804557 L 467.96630859375006 142.29831221570748 L 468.4833984375 151.16175675343175 L 469.00048828125006 159.89322441047398 L 469.517578125 168.49599557119063 L 470.03466796875006 176.97323004255895 L 470.55175781250006 185.32797286059304 L 471.06884765625 193.56315975205507 L 471.5859375 201.68162227572384 L 472.10302734375006 209.6860926654649 L 472.6201171875 217.57920839563803 L 473.13720703125006 225.36351648766276 L 473.65429687500006 233.04147757517467 L 474.17138671875 240.61546974378234 L 474.6884765625 248.08779216027096 L 475.20556640625006 255.46066850491206 L 475.72265625 262.7362502195638 L 476.23974609375006 269.9166195832854 L 476.75683593750006 277.00379262632123 L 477.27392578125 283.99972189253094 L 477.791015625 290.90629905962487 L 478.30810546875006 297.7253574258734 L 478.82519531250006 304.4586742713773 L 479.34228515625006 311.10797310140106 L 479.85937500000006 317.67492577874873 L 480.37646484375 324.16115455172485 L 480.8935546875 330.5682339837108 L 481.41064453125006 336.8976927900517 L 481.92773437500006 343.1510155875262 L 482.44482421875006 349.32964456134005 L 482.9619140625 355.43498105425397 L 483.47900390625 361.46838708218365 L 483.99609375 367.4311867802812 L 484.51318359375006 373.3246677833149 L 485.03027343750006 379.1500825438711 L 485.54736328125006 384.9086495917154 L 486.064453125 390.6015547374295 L 486.58154296875 396.2299522232547 L 487.09863281250006 401.79496582388265 L 487.61572265625 407.2976898998004 L 488.13281250000006 412.73919040559485 L 488.64990234375006 418.12050585552424 L 489.1669921875 423.44264824849597 L 489.68408203125 428.7066039544893 L 490.201171875 433.91333456431903 L 490.71826171875006 439.06377770455765 L 491.2353515625 444.1588478193012 L 491.75244140625 449.1994369203858 L 492.26953125 454.18641530757714 L 493.30371093750006 464.0029167011785 L 494.337890625 473.6149057654711 L 495.3720703125 483.0286304086694 L 496.40625 492.25005121623826 L 497.4404296875 501.284858605331 L 498.474609375 510.1384887205718 L 499.50878906250006 518.8161381802138 L 500.54296875 527.3227777708826 L 501.5771484375 535.6631651794551 L 502.611328125 543.8418568420434 L 503.6455078125 551.8632189824543 L 504.67968750000006 559.7314379056179 L 505.71386718750006 567.4505296054431 L 506.748046875 575.0243487410771 L 507.7822265625 582.4565970306471 L 508.81640625 589.7508311071997 L 509.8505859375 596.9104698775841 L 510.88476562500006 603.9388014214783 L 511.91894531250006 610.8389894645507 L 512.953125 617.614079456861 L 513.9873046875 624.2670042849882 L 515.021484375 630.8005896439936 L 516.0556640625 637.2175590932056 L 517.08984375 643.5205388178415 L 518.1240234375 649.7120621167387 L 519.158203125 655.7945736348279 L 520.1923828125 661.7704333575598 L 521.2265625 667.6419203831156 L 522.2607421875 673.4112364870598 L 523.294921875 679.0805094929424 L 524.3291015625 684.6517964613745 L 525.36328125 690.1270867091498 L 526.3974609375 695.508304669142 L 527.431640625 700.7973126009188 L 528.4658203125 705.9959131613191 L 529.5 711.1058518435452 M 529.5 711.1058518435452 L 531.568359375 721.0664535055375 L 533.63671875 730.6920234043714 L 535.705078125 739.9946894506097 L 537.7734375 748.9858607781075 L 539.841796875 757.6762813542741 L 541.91015625 766.0760786756546 L 543.978515625 774.1948080781358 L 546.046875 782.0414931258501 L 548.115234375 789.624662486568 L 550.18359375 796.9523836528151 L 552.251953125 804.0322938258605 L 554.3203125 810.8716282431506 L 556.388671875 817.4772461979783 L 558.45703125 823.8556549723858 L 560.525390625 830.0130318800288 L 562.59375 835.9552445944587 L 564.662109375 841.6878699195586 L 566.73046875 847.216211142435 L 568.798828125 852.5453140945615 L 570.8671875 857.6799820341203 L 575.00390625 867.3840948871248 L 579.140625 876.3626249090103 L 583.27734375 884.6465541091093 L 587.4140625 892.2640915095417 L 591.55078125 899.2409518872669 L 595.6875 905.6005992617543 L 599.82421875 911.3644602821428 L 603.9609375 916.5521118086758 L 608.09765625 921.1814462837674 L 612.234375 925.268817915482 L 616.37109375 928.8291722254608 L 620.5078125 931.8761611241762 L 624.64453125 934.4222453535408 L 628.78125 936.4787858677319 L 632.91796875 938.056125497832 L 637.0546875 939.1636620566642 L 641.19140625 939.8099138805787 L 645.328125 940.0025786698989 L 649.46484375 939.7485863750239 L 653.6015625 939.0541467774183 L 657.73828125 937.9247923312041 L 661.875 936.3654167593781 L 666.01171875 934.380309837084 L 670.1484375 931.9731887411881 L 674.28515625 929.1472262994453 L 678.421875 925.9050764326034 L 682.55859375 922.2488970481363 L 686.6953125 918.1803706139908 L 690.83203125 913.7007226142664 L 694.96875 908.8107380655324 L 699.10546875 903.5107762520574 L 703.2421875 897.8007838202507 L 707.37890625 891.6803063566708 L 711.515625 885.1484985598809 L 715.65234375 878.2041331038699 L 719.7890625 870.8456082795847 L 723.92578125 863.0709544911192 L 728.0625 854.8778396741236 L 732.19921875 846.2635736959342 L 736.3359375 837.2251117896117 L 740.47265625 827.7590570674683 L 744.609375 817.8616621536225 L 746.677734375 812.7499454434578 L 748.74609375 807.5288299696231 L 750.814453125 802.1977489509122 L 752.8828125 796.7561137021007 L 754.951171875 791.2033135898628 L 757.01953125 785.5387159767447 L 759.087890625 779.761666153307 L 761.15625 773.8714872585379 L 763.224609375 767.867480188625 L 765.29296875 761.74892349415 L 767.361328125 755.5150732657935 L 769.4296875 749.165163008548 L 771.498046875 742.698403504522 L 773.56640625 736.1139826643166 L 775.634765625 729.4110653670082 L 777.703125 722.588793288714 L 779.771484375 715.6462847197331 L 781.83984375 708.5826343702315 L 783.908203125 701.3969131644271 L 785.9765625 694.0881680232278 L 788.044921875 686.6554216352492 L 790.11328125 679.097672216144 L 792.181640625 671.4138932561523 L 794.25 663.6030332557657 L 796.318359375 655.664015449413 L 798.38671875 647.5957375170219 L 800.455078125 639.397071283337 L 802.5234375 631.0668624048494 L 804.591796875 622.603930044168 L 806.66015625 614.0070665316739 L 808.728515625 605.2750370142767 L 810.796875 596.4065790910654 L 812.865234375 587.4004024356705 L 814.93359375 578.2551884051 L 817.001953125 568.9695896348198 L 819.0703125 559.542229619854 L 821.138671875 549.971702281623 L 823.20703125 540.2565715202672 L 825.275390625 530.3953707521582 L 826.3095703125 525.4095273555699 L 827.34375 520.3866024323233 L 828.3779296875 515.326403870708 L 829.412109375 510.2287375614401 L 830.4462890625 505.093407381401 L 831.48046875 499.9202151771037 L 832.5146484375 494.7089607479138 L 833.548828125 489.45944182900666 L 834.5830078125 484.1714540740595 L 835.6171875 478.84479103768354 L 836.6513671875 473.47924415758416 L 837.685546875 468.0746027364494 L 838.7197265625 462.63065392356157 L 839.75390625 457.14718269613513 L 840.7880859375 451.62397184037263 L 841.822265625 446.06080193222806 L 842.8564453125 440.45745131789454 L 843.890625 434.81369609398416 L 844.9248046875 429.12931008743044 L 845.958984375 423.4040648350756 L 846.9931640625 417.63772956296316 L 848.02734375 411.8300711653251 L 849.0615234375 405.98085418324627 L 850.095703125 400.08984078303365 L 851.1298828125 394.1567907342519 L 852.1640625 388.1814613874335 L 853.1982421875 382.1636076514792 L 854.232421875 376.10298197070915 L 855.2666015625 369.9993343015867 L 856.30078125 363.85241208909974 L 857.3349609375 357.6619602428 L 858.369140625 351.42772111248723 L 859.4033203125 345.14943446354346 L 860.4375 338.8268374519107 L 861.4716796875 332.4596645986926 L 862.505859375 326.047647764402 L 863.5400390625 319.59051612282656 L 864.57421875 313.0879961345131 L 865.6083984375 306.5398115198723 L 866.642578125 299.9456832318883 L 867.6767578125 293.30532942844 L 868.7109375 286.6184654442118 L 869.7451171875 279.8848037621997 L 870.779296875 273.10405398481316 L 871.8134765625 266.2759228045484 L 872.84765625 259.40011397423405 L 873.8818359375 252.4763282768613 L 874.916015625 245.50426349495729 L 875.9501953125 238.48361437952917 L 876.984375 231.41407261855056 L 878.0185546875 224.29532680499415 L 879.052734375 217.1270624043932 L 880.0869140625 209.90896172194653 L 881.12109375 202.64070386913045 L 882.1552734375 195.32196472983424 L 883.189453125 187.95241692599802 L 884.2236328125 180.5317297827587 L 885.2578125000001 173.0595692930783 L 886.2919921875 165.53559808186446 L 887.326171875 157.95947536955873 L 888.3603515625 150.3308569352107 L 889.39453125 142.64939507898953 L 890.4287109375 134.91473858416657 L 891.462890625 127.12653267853239 L 892.4970703125 119.28441899525023 L 893.53125 111.38803553313028 L 894.5654296875 103.43701661633668 L 895.599609375 95.43099285348035 L 896.6337890625 87.36959109612599 L 897.66796875 79.25243439668293 L 898.7021484375 71.07914196567117 L 899.736328125 62.84932912835984 L 900.7705078125 54.562607280767224 L 901.8046875 46.218583845002286 L 902.8388671875 37.81686222394683 L 903.873046875 29.357041755265982 L 904.9072265625001 20.83871766473476 L 905.94140625 12.261481018867016 L 906.9755859375 3.6249186768354775 L 908.009765625 -5.071386758315384 M 908.3388755291062 -10" stroke-opacity="0.8" stroke-linecap="round" stroke-linejoin="round" stroke-miterlimit="10" stroke-width="2.5"/><g transform="scale(35,35)"><g transform="translate(13.82857142857143,3.7928571428571427)"><path fill="rgb(0,103,88)" stroke="none" paint-order="stroke fill markers" d=" M 0.661 -0.23 L 0.116 -0.23 Q 0.084 -0.23 0.083 -0.25 Q 0.083 -0.27 0.116 -0.27 L 0.661 -0.27 Q 0.6930000000000001 -0.27 0.6940000000000001 -0.25 Q 0.6940000000000001 -0.23 0.661 -0.23 Z"/></g><g transform="translate(14.60657142857143,3.7928571428571427)"><path fill="rgb(0,103,88)" stroke="none" paint-order="stroke fill markers" d=" M 0.2548828125 0.01123046875 Q 0.220703125 0.01123046875 0.193603515625 -0.00341796875 Q 0.16650390625 -0.01806640625 0.14794921875 -0.044677734375 Q 0.12939453125 -0.0712890625 0.12060546875 -0.101806640625 Q 0.11181640625 -0.13232421875 0.11181640625 -0.1650390625 Q 0.11181640625 -0.216796875 0.130615234375 -0.266357421875 Q 0.1494140625 -0.31591796875 0.18359375 -0.35595703125 Q 0.2177734375 -0.39599609375 0.264404296875 -0.4189453125 Q 0.31103515625 -0.44189453125 0.36376953125 -0.44189453125 Q 0.3896484375 -0.44189453125 0.412841796875 -0.43212890625 Q 0.43603515625 -0.42236328125 0.450439453125 -0.403076171875 Q 0.46484375 -0.3837890625 0.46484375 -0.35693359375 Q 0.46484375 -0.27587890625 0.387451171875 -0.25244140625 Q 0.31005859375 -0.22900390625 0.205078125 -0.22900390625 L 0.2021484375 -0.22900390625 Q 0.18505859375 -0.16259765625 0.18505859375 -0.12109375 Q 0.18505859375 -0.0810546875 0.202392578125 -0.048095703125 Q 0.2197265625 -0.01513671875 0.2568359375 -0.01513671875 Q 0.3095703125 -0.01513671875 0.359130859375 -0.043701171875 Q 0.40869140625 -0.072265625 0.44189453125 -0.1181640625 Q 0.443359375 -0.12109375 0.44921875 -0.12109375 Q 0.455078125 -0.12109375 0.4658203125 -0.10693359375 Q 0.4677734375 -0.10595703125 0.4677734375 -0.10107421875 Q 0.4677734375 -0.09716796875 0.4658203125 -0.09521484375 Q 0.44287109375 -0.0625 0.4091796875 -0.038330078125 Q 0.37548828125 -0.01416015625 0.33544921875 -0.00146484375 Q 0.29541015625 0.01123046875 0.2548828125 0.01123046875 M 0.2080078125 -0.2548828125 Q 0.26318359375 -0.2548828125 0.3076171875 -0.260498046875 Q 0.35205078125 -0.26611328125 0.387451171875 -0.288818359375 Q 0.4228515625 -0.3115234375 0.4228515625 -0.35693359375 Q 0.4228515625 -0.3828125 0.4052734375 -0.3994140625 Q 0.3876953125 -0.416015625 0.36181640625 -0.416015625 Q 0.3037109375 -0.416015625 0.265380859375 -0.368896484375 Q 0.22705078125 -0.32177734375 0.2080078125 -0.2548828125 Z"/></g><g transform="translate(15.06657142857143,3.379965142857143) scale(0.7,0.7)"><path fill="rgb(0,103,88)" stroke="none" paint-order="stroke fill markers" d=" M 0.334 -0.302 L 0.3 -0.165 Q 0.28300000000000003 -0.097 0.28300000000000003 -0.077 Q 0.28300000000000003 -0.025 0.32 -0.014 Q 0.328 -0.011 0.338 -0.011 Q 0.388 -0.011 0.429 -0.061 Q 0.456 -0.093 0.47100000000000003 -0.14200000000000002 Q 0.47400000000000003 -0.153 0.484 -0.153 Q 0.496 -0.153 0.496 -0.14300000000000002 Q 0.496 -0.11800000000000001 0.465 -0.07100000000000001 Q 0.41100000000000003 0.011 0.336 0.011 Q 0.268 0.011 0.23700000000000002 -0.046 Q 0.231 -0.055 0.228 -0.065 Q 0.20400000000000001 -0.017 0.162 0.002 Q 0.14300000000000002 0.011 0.123 0.011 Q 0.063 0.011 0.039 -0.024 Q 0.029 -0.037 0.029 -0.055 Q 0.029 -0.092 0.061 -0.107 Q 0.07200000000000001 -0.113 0.084 -0.113 Q 0.114 -0.113 0.12 -0.088 Q 0.121 -0.083 0.121 -0.078 Q 0.121 -0.044 0.08700000000000001 -0.028 Q 0.081 -0.025 0.074 -0.024 Q 0.095 -0.011 0.124 -0.011 Q 0.177 -0.011 0.20800000000000002 -0.082 Q 0.214 -0.097 0.219 -0.115 Q 0.273 -0.319 0.273 -0.353 Q 0.267 -0.41500000000000004 0.219 -0.42 Q 0.167 -0.42 0.124 -0.367 L 0.124 -0.366 Q 0.124 -0.365 0.123 -0.365 Q 0.108 -0.34500000000000003 0.096 -0.319 Q 0.091 -0.307 0.08700000000000001 -0.295 L 0.085 -0.289 Q 0.083 -0.278 0.07200000000000001 -0.278 Q 0.06 -0.278 0.06 -0.28800000000000003 Q 0.06 -0.313 0.092 -0.36 Q 0.146 -0.442 0.221 -0.442 Q 0.298 -0.442 0.329 -0.366 Q 0.361 -0.428 0.41400000000000003 -0.44 Q 0.424 -0.442 0.434 -0.442 Q 0.493 -0.442 0.517 -0.40900000000000003 Q 0.527 -0.395 0.527 -0.376 Q 0.527 -0.335 0.49 -0.321 Q 0.481 -0.318 0.47300000000000003 -0.318 Q 0.442 -0.318 0.436 -0.34500000000000003 Q 0.435 -0.34900000000000003 0.435 -0.353 Q 0.435 -0.383 0.464 -0.4 Q 0.47300000000000003 -0.405 0.483 -0.40700000000000003 Q 0.462 -0.42 0.433 -0.42 Q 0.365 -0.42 0.337 -0.314 Q 0.335 -0.308 0.334 -0.302 Z"/></g><g transform="translate(15.75898154934778,2.3828571428571426)"><path fill="rgb(0,103,88)" stroke="none" paint-order="stroke fill markers" d=" M 0.662109375 2.35693359375 Q 0.5390625 2.248046875 0.451171875 2.10888671875 Q 0.36328125 1.9697265625 0.31005859375 1.81494140625 Q 0.2568359375 1.66015625 0.232421875 1.494873046875 Q 0.2080078125 1.32958984375 0.2080078125 1.16015625 Q 0.2080078125 0.98974609375 0.232421875 0.823974609375 Q 0.2568359375 0.658203125 0.309814453125 0.50390625 Q 0.36279296875 0.349609375 0.450927734375 0.210205078125 Q 0.5390625 0.07080078125 0.662109375 -0.0380859375 Q 0.662109375 -0.0400390625 0.6669921875 -0.0400390625 L 0.69287109375 -0.0400390625 Q 0.69580078125 -0.0400390625 0.698486328125 -0.037109375 Q 0.701171875 -0.0341796875 0.701171875 -0.03076171875 Q 0.701171875 -0.02685546875 0.69921875 -0.02490234375 Q 0.5849609375 0.087890625 0.506103515625 0.22607421875 Q 0.42724609375 0.3642578125 0.380859375 0.51708984375 Q 0.33447265625 0.669921875 0.314697265625 0.8310546875 Q 0.294921875 0.9921875 0.294921875 1.16015625 Q 0.294921875 1.32763671875 0.314453125 1.486572265625 Q 0.333984375 1.6455078125 0.380859375 1.80029296875 Q 0.427734375 1.955078125 0.5068359375 2.09326171875 Q 0.5859375 2.2314453125 0.69921875 2.34423828125 Q 0.701171875 2.34619140625 0.701171875 2.35009765625 Q 0.701171875 2.35302734375 0.6982421875 2.35595703125 Q 0.6953125 2.35888671875 0.69287109375 2.35888671875 L 0.6669921875 2.35888671875 Q 0.662109375 2.35888671875 0.662109375 2.35693359375 Z"/></g><g transform="translate(16.49498154934778,3.7928571428571427)"><path fill="rgb(0,103,88)" stroke="none" paint-order="stroke fill markers" d=" M 0.177 -0.6940000000000001 L 0.177 -0.076 Q 0.177 -0.042 0.193 -0.036000000000000004 Q 0.20400000000000001 -0.031 0.255 -0.031 L 0.255 0 L 0.14400000000000002 -0.003 Q 0.132 -0.003 0.033 0 L 0.033 -0.031 Q 0.092 -0.031 0.10200000000000001 -0.04 L 0.10400000000000001 -0.042 Q 0.111 -0.05 0.111 -0.076 L 0.111 -0.596 Q 0.111 -0.635 0.097 -0.644 L 0.096 -0.644 Q 0.085 -0.65 0.058 -0.652 L 0.033 -0.652 L 0.033 -0.683 L 0.177 -0.6940000000000001 Z"/></g><g transform="translate(16.77298154934778,3.7928571428571427)"><path fill="rgb(0,103,88)" stroke="none" paint-order="stroke fill markers" d=" M 0.11 -0.34400000000000003 Q 0.11 -0.383 0.095 -0.392 Q 0.083 -0.399 0.052000000000000005 -0.4 L 0.032 -0.4 L 0.032 -0.431 L 0.17300000000000001 -0.442 L 0.17300000000000001 -0.337 Q 0.22 -0.442 0.321 -0.442 Q 0.396 -0.442 0.426 -0.405 Q 0.453 -0.374 0.456 -0.32 Q 0.457 -0.301 0.457 -0.252 L 0.457 -0.061 Q 0.458 -0.037 0.486 -0.033 Q 0.498 -0.031 0.535 -0.031 L 0.535 0 Q 0.433 -0.003 0.423 -0.003 Q 0.41500000000000004 -0.003 0.31 0 L 0.31 -0.031 Q 0.369 -0.031 0.379 -0.04 L 0.381 -0.042 Q 0.388 -0.05 0.388 -0.076 L 0.388 -0.309 Q 0.388 -0.40800000000000003 0.331 -0.418 Q 0.323 -0.42 0.314 -0.42 Q 0.253 -0.42 0.212 -0.367 Q 0.179 -0.324 0.179 -0.26 L 0.179 -0.076 Q 0.179 -0.042 0.195 -0.036000000000000004 Q 0.20600000000000002 -0.031 0.257 -0.031 L 0.257 0 Q 0.155 -0.003 0.145 -0.003 Q 0.137 -0.003 0.032 0 L 0.032 -0.031 Q 0.091 -0.031 0.101 -0.04 L 0.10300000000000001 -0.042 Q 0.11 -0.05 0.11 -0.076 L 0.11 -0.34400000000000003 Z"/></g><g transform="translate(17.32898154934778,3.7928571428571427)"><path fill="rgb(0,103,88)" stroke="none" paint-order="stroke fill markers" d=" M 0.331 0.24 L 0.331 0.24 Q 0.331 0.25 0.321 0.25 Q 0.309 0.25 0.268 0.209 Q 0.20600000000000002 0.147 0.165 0.062 Q 0.099 -0.074 0.099 -0.25 Q 0.099 -0.419 0.162 -0.555 Q 0.214 -0.666 0.294 -0.733 Q 0.315 -0.75 0.321 -0.75 Q 0.331 -0.75 0.331 -0.74 Q 0.331 -0.735 0.318 -0.723 Q 0.157 -0.559 0.157 -0.25 Q 0.157 0.058 0.314 0.218 Q 0.331 0.23500000000000001 0.331 0.24 Z"/></g><g transform="translate(17.71798154934778,3.7928571428571427)"><path fill="rgb(0,103,88)" stroke="none" paint-order="stroke fill markers" d=" M 0.334 -0.302 L 0.3 -0.165 Q 0.28300000000000003 -0.097 0.28300000000000003 -0.077 Q 0.28300000000000003 -0.025 0.32 -0.014 Q 0.328 -0.011 0.338 -0.011 Q 0.388 -0.011 0.429 -0.061 Q 0.456 -0.093 0.47100000000000003 -0.14200000000000002 Q 0.47400000000000003 -0.153 0.484 -0.153 Q 0.496 -0.153 0.496 -0.14300000000000002 Q 0.496 -0.11800000000000001 0.465 -0.07100000000000001 Q 0.41100000000000003 0.011 0.336 0.011 Q 0.268 0.011 0.23700000000000002 -0.046 Q 0.231 -0.055 0.228 -0.065 Q 0.20400000000000001 -0.017 0.162 0.002 Q 0.14300000000000002 0.011 0.123 0.011 Q 0.063 0.011 0.039 -0.024 Q 0.029 -0.037 0.029 -0.055 Q 0.029 -0.092 0.061 -0.107 Q 0.07200000000000001 -0.113 0.084 -0.113 Q 0.114 -0.113 0.12 -0.088 Q 0.121 -0.083 0.121 -0.078 Q 0.121 -0.044 0.08700000000000001 -0.028 Q 0.081 -0.025 0.074 -0.024 Q 0.095 -0.011 0.124 -0.011 Q 0.177 -0.011 0.20800000000000002 -0.082 Q 0.214 -0.097 0.219 -0.115 Q 0.273 -0.319 0.273 -0.353 Q 0.267 -0.41500000000000004 0.219 -0.42 Q 0.167 -0.42 0.124 -0.367 L 0.124 -0.366 Q 0.124 -0.365 0.123 -0.365 Q 0.108 -0.34500000000000003 0.096 -0.319 Q 0.091 -0.307 0.08700000000000001 -0.295 L 0.085 -0.289 Q 0.083 -0.278 0.07200000000000001 -0.278 Q 0.06 -0.278 0.06 -0.28800000000000003 Q 0.06 -0.313 0.092 -0.36 Q 0.146 -0.442 0.221 -0.442 Q 0.298 -0.442 0.329 -0.366 Q 0.361 -0.428 0.41400000000000003 -0.44 Q 0.424 -0.442 0.434 -0.442 Q 0.493 -0.442 0.517 -0.40900000000000003 Q 0.527 -0.395 0.527 -0.376 Q 0.527 -0.335 0.49 -0.321 Q 0.481 -0.318 0.47300000000000003 -0.318 Q 0.442 -0.318 0.436 -0.34500000000000003 Q 0.435 -0.34900000000000003 0.435 -0.353 Q 0.435 -0.383 0.464 -0.4 Q 0.47300000000000003 -0.405 0.483 -0.40700000000000003 Q 0.462 -0.42 0.433 -0.42 Q 0.365 -0.42 0.337 -0.314 Q 0.335 -0.308 0.334 -0.302 Z"/></g><g transform="translate(18.28998154934778,3.7928571428571427)"><path fill="rgb(0,103,88)" stroke="none" paint-order="stroke fill markers" d=" M 0.289 -0.25 L 0.289 -0.25 Q 0.289 -0.081 0.226 0.055 Q 0.17400000000000002 0.166 0.094 0.233 Q 0.073 0.25 0.067 0.25 Q 0.057 0.25 0.057 0.24 Q 0.057 0.23500000000000001 0.07 0.223 Q 0.231 0.059000000000000004 0.231 -0.25 Q 0.231 -0.555 0.081 -0.712 L 0.076 -0.717 Q 0.057 -0.735 0.057 -0.74 Q 0.057 -0.75 0.067 -0.75 Q 0.079 -0.75 0.12 -0.709 Q 0.182 -0.647 0.223 -0.562 Q 0.289 -0.426 0.289 -0.25 Z"/></g><g transform="translate(18.84564821601445,3.7928571428571427)"><path fill="rgb(0,103,88)" stroke="none" paint-order="stroke fill markers" d=" M 0.40900000000000003 -0.23 L 0.40900000000000003 0.05 Q 0.40900000000000003 0.082 0.389 0.083 Q 0.369 0.083 0.369 0.05 L 0.369 -0.23 L 0.089 -0.23 Q 0.057 -0.23 0.056 -0.25 Q 0.056 -0.27 0.089 -0.27 L 0.369 -0.27 L 0.369 -0.55 Q 0.369 -0.582 0.389 -0.583 Q 0.40900000000000003 -0.583 0.40900000000000003 -0.55 L 0.40900000000000003 -0.27 L 0.6880000000000001 -0.27 Q 0.72 -0.27 0.721 -0.25 Q 0.721 -0.23 0.6880000000000001 -0.23 L 0.40900000000000003 -0.23 Z"/></g><g transform="translate(20.72202806143324,3.1163491428571426)"><path fill="rgb(0,103,88)" stroke="none" paint-order="stroke fill markers" d=" M 0.294 -0.64 L 0.294 -0.079 Q 0.294 -0.049 0.306 -0.041 Q 0.323 -0.031 0.387 -0.031 L 0.419 -0.031 L 0.419 0 Q 0.384 -0.003 0.257 -0.003 Q 0.13 -0.003 0.095 0 L 0.095 -0.031 L 0.127 -0.031 Q 0.20400000000000001 -0.031 0.215 -0.049 L 0.216 -0.05 Q 0.22 -0.058 0.22 -0.079 L 0.22 -0.597 Q 0.168 -0.5710000000000001 0.089 -0.5710000000000001 L 0.089 -0.602 Q 0.209 -0.602 0.271 -0.666 Q 0.29 -0.666 0.293 -0.659 L 0.293 -0.659 L 0.293 -0.658 Q 0.294 -0.655 0.294 -0.64 Z"/></g><rect fill="rgb(0,103,88)" stroke="none" x="19.88002806143324" y="3.5228576428571428" width="2.184" height="0.039999"/><g transform="translate(19.88002806143324,4.478808142857142)"><path fill="rgb(0,103,88)" stroke="none" paint-order="stroke fill markers" d=" M 0.177 -0.6940000000000001 L 0.177 -0.076 Q 0.177 -0.042 0.193 -0.036000000000000004 Q 0.20400000000000001 -0.031 0.255 -0.031 L 0.255 0 L 0.14400000000000002 -0.003 Q 0.132 -0.003 0.033 0 L 0.033 -0.031 Q 0.092 -0.031 0.10200000000000001 -0.04 L 0.10400000000000001 -0.042 Q 0.111 -0.05 0.111 -0.076 L 0.111 -0.596 Q 0.111 -0.635 0.097 -0.644 L 0.096 -0.644 Q 0.085 -0.65 0.058 -0.652 L 0.033 -0.652 L 0.033 -0.683 L 0.177 -0.6940000000000001 Z"/></g><g transform="translate(20.15802806143324,4.478808142857142)"><path fill="rgb(0,103,88)" stroke="none" paint-order="stroke fill markers" d=" M 0.11 -0.34400000000000003 Q 0.11 -0.383 0.095 -0.392 Q 0.083 -0.399 0.052000000000000005 -0.4 L 0.032 -0.4 L 0.032 -0.431 L 0.17300000000000001 -0.442 L 0.17300000000000001 -0.337 Q 0.22 -0.442 0.321 -0.442 Q 0.396 -0.442 0.426 -0.405 Q 0.453 -0.374 0.456 -0.32 Q 0.457 -0.301 0.457 -0.252 L 0.457 -0.061 Q 0.458 -0.037 0.486 -0.033 Q 0.498 -0.031 0.535 -0.031 L 0.535 0 Q 0.433 -0.003 0.423 -0.003 Q 0.41500000000000004 -0.003 0.31 0 L 0.31 -0.031 Q 0.369 -0.031 0.379 -0.04 L 0.381 -0.042 Q 0.388 -0.05 0.388 -0.076 L 0.388 -0.309 Q 0.388 -0.40800000000000003 0.331 -0.418 Q 0.323 -0.42 0.314 -0.42 Q 0.253 -0.42 0.212 -0.367 Q 0.179 -0.324 0.179 -0.26 L 0.179 -0.076 Q 0.179 -0.042 0.195 -0.036000000000000004 Q 0.20600000000000002 -0.031 0.257 -0.031 L 0.257 0 Q 0.155 -0.003 0.145 -0.003 Q 0.137 -0.003 0.032 0 L 0.032 -0.031 Q 0.091 -0.031 0.101 -0.04 L 0.10300000000000001 -0.042 Q 0.11 -0.05 0.11 -0.076 L 0.11 -0.34400000000000003 Z"/></g><g transform="translate(20.71402806143324,4.478808142857142)"><path fill="rgb(0,103,88)" stroke="none" paint-order="stroke fill markers" d=" M 0.331 0.24 L 0.331 0.24 Q 0.331 0.25 0.321 0.25 Q 0.309 0.25 0.268 0.209 Q 0.20600000000000002 0.147 0.165 0.062 Q 0.099 -0.074 0.099 -0.25 Q 0.099 -0.419 0.162 -0.555 Q 0.214 -0.666 0.294 -0.733 Q 0.315 -0.75 0.321 -0.75 Q 0.331 -0.75 0.331 -0.74 Q 0.331 -0.735 0.318 -0.723 Q 0.157 -0.559 0.157 -0.25 Q 0.157 0.058 0.314 0.218 Q 0.331 0.23500000000000001 0.331 0.24 Z"/></g><g transform="translate(21.10302806143324,4.478808142857142)"><path fill="rgb(0,103,88)" stroke="none" paint-order="stroke fill markers" d=" M 0.334 -0.302 L 0.3 -0.165 Q 0.28300000000000003 -0.097 0.28300000000000003 -0.077 Q 0.28300000000000003 -0.025 0.32 -0.014 Q 0.328 -0.011 0.338 -0.011 Q 0.388 -0.011 0.429 -0.061 Q 0.456 -0.093 0.47100000000000003 -0.14200000000000002 Q 0.47400000000000003 -0.153 0.484 -0.153 Q 0.496 -0.153 0.496 -0.14300000000000002 Q 0.496 -0.11800000000000001 0.465 -0.07100000000000001 Q 0.41100000000000003 0.011 0.336 0.011 Q 0.268 0.011 0.23700000000000002 -0.046 Q 0.231 -0.055 0.228 -0.065 Q 0.20400000000000001 -0.017 0.162 0.002 Q 0.14300000000000002 0.011 0.123 0.011 Q 0.063 0.011 0.039 -0.024 Q 0.029 -0.037 0.029 -0.055 Q 0.029 -0.092 0.061 -0.107 Q 0.07200000000000001 -0.113 0.084 -0.113 Q 0.114 -0.113 0.12 -0.088 Q 0.121 -0.083 0.121 -0.078 Q 0.121 -0.044 0.08700000000000001 -0.028 Q 0.081 -0.025 0.074 -0.024 Q 0.095 -0.011 0.124 -0.011 Q 0.177 -0.011 0.20800000000000002 -0.082 Q 0.214 -0.097 0.219 -0.115 Q 0.273 -0.319 0.273 -0.353 Q 0.267 -0.41500000000000004 0.219 -0.42 Q 0.167 -0.42 0.124 -0.367 L 0.124 -0.366 Q 0.124 -0.365 0.123 -0.365 Q 0.108 -0.34500000000000003 0.096 -0.319 Q 0.091 -0.307 0.08700000000000001 -0.295 L 0.085 -0.289 Q 0.083 -0.278 0.07200000000000001 -0.278 Q 0.06 -0.278 0.06 -0.28800000000000003 Q 0.06 -0.313 0.092 -0.36 Q 0.146 -0.442 0.221 -0.442 Q 0.298 -0.442 0.329 -0.366 Q 0.361 -0.428 0.41400000000000003 -0.44 Q 0.424 -0.442 0.434 -0.442 Q 0.493 -0.442 0.517 -0.40900000000000003 Q 0.527 -0.395 0.527 -0.376 Q 0.527 -0.335 0.49 -0.321 Q 0.481 -0.318 0.47300000000000003 -0.318 Q 0.442 -0.318 0.436 -0.34500000000000003 Q 0.435 -0.34900000000000003 0.435 -0.353 Q 0.435 -0.383 0.464 -0.4 Q 0.47300000000000003 -0.405 0.483 -0.40700000000000003 Q 0.462 -0.42 0.433 -0.42 Q 0.365 -0.42 0.337 -0.314 Q 0.335 -0.308 0.334 -0.302 Z"/></g><g transform="translate(21.67502806143324,4.478808142857142)"><path fill="rgb(0,103,88)" stroke="none" paint-order="stroke fill markers" d=" M 0.289 -0.25 L 0.289 -0.25 Q 0.289 -0.081 0.226 0.055 Q 0.17400000000000002 0.166 0.094 0.233 Q 0.073 0.25 0.067 0.25 Q 0.057 0.25 0.057 0.24 Q 0.057 0.23500000000000001 0.07 0.223 Q 0.231 0.059000000000000004 0.231 -0.25 Q 0.231 -0.555 0.081 -0.712 L 0.076 -0.717 Q 0.057 -0.735 0.057 -0.74 Q 0.057 -0.75 0.067 -0.75 Q 0.079 -0.75 0.12 -0.709 Q 0.182 -0.647 0.223 -0.562 Q 0.289 -0.426 0.289 -0.25 Z"/></g><g transform="translate(22.09818568462981,2.3828571428571426)"><path fill="rgb(0,103,88)" stroke="none" paint-order="stroke fill markers" d=" M 0.04296875 2.35888671875 Q 0.0341796875 2.35888671875 0.0341796875 2.35009765625 Q 0.0341796875 2.34619140625 0.0361328125 2.34423828125 Q 0.150390625 2.2314453125 0.22900390625 2.093017578125 Q 0.3076171875 1.95458984375 0.35400390625 1.802001953125 Q 0.400390625 1.6494140625 0.420166015625 1.489990234375 Q 0.43994140625 1.33056640625 0.43994140625 1.1591796875 Q 0.43994140625 0.98583984375 0.420166015625 0.82763671875 Q 0.400390625 0.66943359375 0.3544921875 0.517578125 Q 0.30859375 0.36572265625 0.22900390625 0.226318359375 Q 0.1494140625 0.0869140625 0.0361328125 -0.02490234375 Q 0.0341796875 -0.02685546875 0.0341796875 -0.03076171875 Q 0.0341796875 -0.0400390625 0.04296875 -0.0400390625 L 0.06884765625 -0.0400390625 Q 0.072265625 -0.0400390625 0.07421875 -0.0380859375 Q 0.19775390625 0.0712890625 0.28564453125 0.210693359375 Q 0.37353515625 0.35009765625 0.42626953125 0.5048828125 Q 0.47900390625 0.65966796875 0.5029296875 0.82470703125 Q 0.52685546875 0.98974609375 0.52685546875 1.16015625 Q 0.52685546875 1.32958984375 0.5029296875 1.494140625 Q 0.47900390625 1.65869140625 0.42626953125 1.813720703125 Q 0.37353515625 1.96875 0.28564453125 2.108154296875 Q 0.19775390625 2.24755859375 0.07421875 2.35693359375 Q 0.072265625 2.35888671875 0.06884765625 2.35888671875 L 0.04296875 2.35888671875 Z"/></g></g><path fill="none" stroke="rgb(0,0,0)" paint-order="fill stroke markers" d=" M -5 671.688915627331 L 2123 671.688915627331" stroke-opacity="1" stroke-linecap="round" stroke-linejoin="round" stroke-miterlimit="10"/><text fill="rgb(0,0,0)" stroke="none" font-family="geogebra-sans-serif, sans-serif" font-size="32px" font-style="normal" font-weight="normal" text-decoration="normal" x="24" y="663" text-anchor="start" dominant-baseline="alphabetic" fill-opacity="1">y = 3</text><path fill="rgb(110,109,115)" stroke="none" paint-order="stroke fill markers" d=" M 801.1081927917571 671.688915627331 C 801.1081927917571 676.6594783758081 797.0787555402343 680.688915627331 792.1081927917571 680.688915627331 C 787.13763004328 680.688915627331 783.1081927917571 676.6594783758081 783.1081927917571 671.688915627331 C 783.1081927917571 666.7183528788538 787.13763004328 662.688915627331 792.1081927917571 662.688915627331 C 797.0787555402343 662.688915627331 801.1081927917571 666.7183528788538 801.1081927917571 671.688915627331 Z" fill-opacity="1"/><path fill="none" stroke="rgb(0,0,0)" paint-order="fill stroke markers" d=" M 801.1081927917571 671.688915627331 C 801.1081927917571 676.6594783758081 797.0787555402343 680.688915627331 792.1081927917571 680.688915627331 C 787.13763004328 680.688915627331 783.1081927917571 676.6594783758081 783.1081927917571 671.688915627331 C 783.1081927917571 666.7183528788538 787.13763004328 662.688915627331 792.1081927917571 662.688915627331 C 797.0787555402343 662.688915627331 801.1081927917571 666.7183528788538 801.1081927917571 671.688915627331 Z" stroke-opacity="1" stroke-linecap="round" stroke-linejoin="round" stroke-miterlimit="10"/><text fill="rgb(110,109,115)" stroke="none" font-family="geogebra-sans-serif, sans-serif" font-size="32px" font-style="normal" font-weight="normal" text-decoration="normal" x="796" y="654" text-anchor="start" dominant-baseline="alphabetic" fill-opacity="1">A = (0.40133, 3)</text><path fill="rgb(110,109,115)" stroke="none" paint-order="stroke fill markers" d=" M 530.9501059388651 671.688915627331 C 530.9501059388651 676.6594783758081 526.9206686873423 680.688915627331 521.9501059388651 680.688915627331 C 516.979543190388 680.688915627331 512.9501059388651 676.6594783758081 512.9501059388651 671.688915627331 C 512.9501059388651 666.7183528788538 516.979543190388 662.688915627331 521.9501059388651 662.688915627331 C 526.9206686873423 662.688915627331 530.9501059388651 666.7183528788538 530.9501059388651 671.688915627331 Z" fill-opacity="1"/><path fill="none" stroke="rgb(0,0,0)" paint-order="fill stroke markers" d=" M 530.9501059388651 671.688915627331 C 530.9501059388651 676.6594783758081 526.9206686873423 680.688915627331 521.9501059388651 680.688915627331 C 516.979543190388 680.688915627331 512.9501059388651 676.6594783758081 512.9501059388651 671.688915627331 C 512.9501059388651 666.7183528788538 516.979543190388 662.688915627331 521.9501059388651 662.688915627331 C 526.9206686873423 662.688915627331 530.9501059388651 666.7183528788538 530.9501059388651 671.688915627331 Z" stroke-opacity="1" stroke-linecap="round" stroke-linejoin="round" stroke-miterlimit="10"/><text fill="rgb(110,109,115)" stroke="none" font-family="geogebra-sans-serif, sans-serif" font-size="32px" font-style="normal" font-weight="normal" text-decoration="normal" x="526" y="654" text-anchor="start" dominant-baseline="alphabetic" fill-opacity="1">B = (0.1043, 3)</text></g></g></svg>